<?xml version="1.0" standalone="no"?>
<!DOCTYPE svg PUBLIC "-//W3C//DTD SVG 20010904//EN"
 "http://www.w3.org/TR/2001/REC-SVG-20010904/DTD/svg10.dtd">
<svg version="1.0" xmlns="http://www.w3.org/2000/svg"
 width="400.000000pt" height="121.000000pt" viewBox="0 0 400.000000 121.000000"
 preserveAspectRatio="xMidYMid meet">

<g transform="translate(0.000000,121.000000) scale(0.100000,-0.100000)"
fill="#000000" stroke="none">
<path d="M378 1171 c-217 -70 -358 -263 -358 -490 0 -183 82 -335 234 -436
310 -206 734 -10 788 365 23 154 -25 300 -138 420 -68 71 -142 117 -233 144
-75 22 -219 20 -293 -3z m144 -38 c-5 -23 -7 -25 -10 -8 -2 11 -9 23 -16 27
-6 5 -3 8 10 8 18 0 20 -4 16 -27z m25 -10 c-3 -10 -5 -4 -5 12 0 17 2 24 5
18 2 -7 2 -21 0 -30z m-121 2 c-2 -14 1 -22 7 -18 6 3 7 1 3 -5 -11 -18 -39
-15 -33 3 4 8 1 18 -5 21 -8 5 -5 10 8 15 10 4 20 8 21 8 1 1 0 -10 -1 -24z
m34 13 c0 -9 4 -8 10 2 5 8 10 12 10 8 0 -3 3 -14 7 -24 5 -13 3 -16 -10 -11
-10 4 -17 1 -17 -6 0 -8 -4 -6 -10 3 -13 20 -13 40 0 40 6 0 10 -6 10 -12z
m151 5 c-11 -5 -11 -7 0 -14 12 -7 11 -9 -1 -9 -13 0 -13 -1 0 -10 13 -8 12
-10 -2 -10 -10 0 -18 5 -18 11 0 6 -7 9 -15 5 -13 -4 -14 -2 -5 14 6 11 20 20
33 19 13 0 16 -3 8 -6z m85 -36 c-3 -20 -8 -23 -36 -18 -13 2 -13 24 1 38 17
17 39 4 35 -20z m-307 -17 c0 -10 -3 -9 -8 4 -7 19 -8 19 -23 -2 -16 -24 -28
-19 -28 11 0 14 5 18 20 14 11 -3 20 0 20 6 0 7 5 5 10 -3 5 -8 9 -22 9 -30z
m337 1 c-1 -18 -5 -27 -13 -24 -16 6 -16 9 -3 34 14 26 17 24 16 -10z m-409
-12 c9 -9 4 -18 -17 -35 -15 -13 -34 -24 -41 -24 -11 0 -11 3 1 10 13 8 12 10
-3 10 -21 0 -18 22 4 28 11 3 11 2 1 -6 -11 -7 -9 -10 7 -15 17 -4 21 -1 21
19 0 26 10 30 27 13z m471 -12 c4 -20 -25 -34 -39 -20 -14 14 1 45 20 41 9 -2
17 -11 19 -21z m-228 -6 c0 -5 9 -11 20 -14 11 -3 18 -1 14 4 -3 5 4 9 14 9
11 0 23 -7 26 -16 4 -11 13 -14 29 -10 12 3 29 0 37 -5 12 -9 11 -10 -5 -5
-20 6 -20 6 -1 -9 23 -18 40 -20 30 -3 -4 7 -3 8 5 4 6 -4 8 -12 5 -18 -5 -7
-1 -9 9 -5 11 4 22 -2 33 -18 9 -14 20 -23 24 -20 5 3 12 0 16 -6 5 -8 3 -9
-6 -4 -8 5 -11 3 -8 -6 3 -8 9 -14 14 -14 16 0 34 -15 45 -38 8 -16 3 -14 -16
8 l-27 30 22 -32 c12 -18 25 -33 30 -33 4 0 11 -7 14 -16 6 -15 4 -15 -10 -3
-16 13 -16 12 -4 -8 8 -12 18 -19 24 -16 5 4 7 -3 4 -15 -4 -12 -2 -20 3 -16
5 3 9 -2 9 -11 0 -10 -5 -14 -12 -10 -7 4 -5 0 5 -8 20 -16 23 -57 5 -58 -9 0
-9 -2 1 -6 11 -5 11 -7 0 -14 -12 -7 -11 -9 1 -9 13 0 13 -1 0 -10 -10 -6 -11
-10 -2 -10 6 0 12 -7 12 -15 0 -8 -4 -15 -9 -15 -5 0 -11 -9 -14 -20 -3 -11
-1 -18 4 -14 5 3 9 1 9 -4 0 -6 -7 -13 -16 -16 -11 -4 -14 -13 -10 -29 3 -14
-1 -31 -10 -43 -14 -18 -14 -17 -3 6 9 20 9 23 -1 13 -7 -7 -14 -23 -15 -35
-1 -13 -6 -23 -11 -23 -15 0 -34 -15 -34 -27 0 -7 6 -6 15 2 30 25 14 3 -22
-31 -26 -23 -32 -26 -18 -8 11 14 5 9 -14 -10 -19 -20 -31 -30 -26 -23 6 11 3
12 -14 3 -11 -7 -21 -14 -21 -17 0 -3 5 -2 12 2 7 4 8 3 4 -4 -10 -16 -32 -4
-32 18 0 10 3 18 6 17 11 -3 70 34 70 43 0 6 7 10 15 10 8 0 15 9 15 20 0 11
7 20 15 20 8 0 18 12 21 28 4 15 13 34 20 42 7 8 11 28 10 43 -2 15 1 30 5 33
13 8 11 144 -2 144 -6 0 -9 7 -6 15 4 8 2 17 -3 20 -5 3 -24 36 -42 73 -19 38
-39 67 -45 65 -7 -3 -19 7 -28 21 -10 14 -21 23 -27 20 -5 -3 -15 1 -21 10 -7
9 -43 22 -85 30 -51 10 -70 10 -63 2 5 -6 9 -37 9 -68 1 -121 3 -135 12 -113
7 16 9 17 9 3 1 -9 6 -18 12 -20 14 -5 -12 -101 -43 -161 -10 -21 -17 -41 -15
-44 3 -2 0 -19 -8 -36 -7 -18 -15 -48 -19 -69 -6 -32 -4 -36 11 -32 10 3 28
22 40 42 12 20 38 57 59 81 37 43 39 48 37 110 -1 36 1 58 3 49 9 -29 24 -20
25 15 2 27 2 28 6 7 3 -14 11 -32 20 -41 21 -25 8 -80 -43 -178 -30 -56 -39
-81 -28 -77 13 5 15 1 10 -18 -20 -79 -38 -95 -54 -48 -7 18 -11 21 -11 9 -1
-10 -6 -17 -13 -15 -22 8 -19 25 9 59 22 28 23 30 4 14 -13 -11 -30 -32 -37
-48 -8 -15 -19 -25 -24 -22 -6 4 -10 -7 -10 -24 0 -21 -5 -31 -15 -31 -8 0
-15 -5 -15 -11 0 -5 -4 -7 -10 -4 -5 3 -10 -1 -10 -9 0 -10 -9 -16 -25 -16
-14 0 -25 -5 -25 -11 0 -7 -9 0 -20 14 -11 14 -20 30 -20 36 0 6 -6 8 -14 5
-16 -6 -51 39 -43 53 3 5 -3 33 -13 63 -23 67 -25 91 -6 84 10 -4 15 8 21 43
8 59 41 137 54 129 5 -4 12 -2 16 4 9 14 35 13 35 -2 0 -6 -3 -8 -7 -5 -9 10
-43 -23 -43 -41 0 -12 3 -12 15 -2 12 10 15 10 15 -3 0 -9 -4 -19 -10 -22 -16
-10 -12 -45 6 -45 11 0 14 -5 9 -17 -4 -10 -10 -38 -13 -63 -2 -25 -9 -48 -14
-51 -5 -3 -4 -16 2 -30 10 -22 10 -23 6 -1 -2 12 0 22 5 22 5 0 9 20 9 45 0
27 5 47 14 52 7 4 20 22 29 39 8 16 36 49 60 71 37 34 43 44 32 53 -8 7 -17
45 -21 93 -5 52 -10 73 -14 57 -6 -23 5 -106 19 -144 6 -15 -2 -28 -31 -54
-21 -19 -40 -33 -43 -31 -12 12 -6 92 10 153 l19 69 -30 23 c-30 25 -44 30
-44 17 0 -5 14 -16 31 -26 33 -18 34 -27 9 -91 -10 -27 -40 -27 -40 0 0 8 -4
14 -9 14 -5 0 -8 27 -7 59 0 32 5 56 10 54 5 -3 7 0 4 7 -2 8 -9 15 -15 17 -7
3 -10 -25 -9 -84 2 -81 0 -92 -26 -135 -16 -25 -34 -71 -40 -102 -10 -44 -15
-53 -25 -44 -23 18 -25 3 -8 -63 15 -60 23 -103 27 -141 1 -9 5 -15 8 -13 4 2
7 -3 7 -12 0 -11 -10 -6 -30 18 -16 19 -27 28 -23 22 10 -19 1 -16 -15 4 -10
11 -10 14 -1 9 21 -12 13 10 -10 30 -15 12 -19 14 -13 4 6 -9 0 -5 -11 8 -12
13 -19 32 -17 42 3 10 -4 27 -16 39 -24 24 -27 35 -8 26 6 -4 4 0 -6 8 -20 17
-23 37 -4 37 7 0 8 3 2 8 -5 4 -10 33 -10 65 0 31 5 57 10 57 6 0 4 4 -4 9
-11 7 -9 14 9 39 13 18 20 37 16 47 -4 11 -2 14 6 9 8 -5 9 -2 5 10 -5 11 -3
15 5 10 8 -5 9 -2 5 9 -3 9 -1 19 5 23 7 5 8 2 3 -7 -11 -19 2 -6 51 51 l38
45 -44 -40 -45 -40 39 42 c21 23 44 39 51 37 7 -3 16 0 21 7 5 8 3 10 -6 4 -8
-5 -11 -4 -6 3 4 6 14 8 23 5 11 -4 14 -3 9 5 -4 8 -2 10 8 6 8 -3 24 4 35 15
21 21 37 28 27 12 -4 -5 3 -7 14 -4 11 3 17 9 14 14 -3 6 6 8 20 5 14 -3 26 0
26 5 0 5 16 9 35 9 19 0 35 -4 35 -9z m276 -12 c3 -6 1 -16 -5 -22 -18 -18
-12 -31 7 -15 15 14 19 14 37 -5 11 -11 14 -17 6 -12 -9 5 -12 3 -9 -6 3 -8
13 -13 22 -13 16 2 16 1 1 -16 -15 -16 -14 -17 10 -13 19 4 25 1 25 -13 0 -15
-2 -16 -9 -5 -5 7 -14 10 -21 6 -9 -6 -9 -9 1 -16 10 -6 10 -9 2 -9 -15 0 -34
34 -31 52 2 7 -4 13 -12 13 -20 0 -50 26 -50 43 0 7 -4 10 -10 7 -14 -9 -13 8
2 23 15 15 25 15 34 1z m-631 -39 c-3 -6 1 -7 9 -4 11 4 16 0 16 -10 0 -9 -7
-19 -15 -22 -8 -4 -12 -11 -9 -16 4 -6 -3 -5 -15 1 -11 7 -21 14 -21 17 0 13
22 44 31 44 6 0 7 -4 4 -10z m-27 -71 c-6 -4 -7 -12 -4 -18 9 -15 -7 -14 -22
1 -20 20 -26 -1 -7 -22 18 -19 17 -20 -1 -20 -10 0 -26 5 -34 11 -11 8 -9 9
10 3 22 -6 23 -5 11 10 -11 13 -11 20 3 41 14 21 19 23 36 13 12 -8 15 -15 8
-19z m772 -58 c-12 -23 -30 -36 -30 -22 0 5 -3 16 -6 25 -5 12 0 16 20 16 23
0 25 -2 16 -19z m-807 -18 c-7 -2 -13 -11 -13 -19 0 -12 -4 -12 -20 -4 -30 16
-24 30 13 29 17 0 26 -3 20 -6z m837 -16 c0 -7 -12 -13 -26 -13 -24 -2 -25 -1
-7 16 19 18 33 17 33 -3z m-353 -109 c-2 -24 -4 -7 -4 37 0 44 2 63 4 43 2
-21 2 -57 0 -80z m-507 66 c0 -7 -4 -16 -10 -19 -6 -4 -7 1 -3 12 6 15 4 16
-9 5 -17 -14 -35 -1 -24 17 9 13 46 1 46 -15z m855 6 c-28 -12 -37 -12 -30 0
3 6 16 10 28 9 21 0 21 -1 2 -9z m23 -33 c4 -20 -25 -34 -40 -19 -15 15 -1 44
19 40 10 -2 19 -11 21 -21z m-895 -6 c11 -1 8 -31 -3 -31 -5 0 -10 5 -10 11 0
8 -5 8 -15 -1 -12 -10 -15 -9 -15 8 0 14 5 19 18 17 9 -2 20 -4 25 -4z m-12
-55 c-9 -11 -9 -15 1 -19 7 -3 0 -6 -17 -6 -21 0 -26 2 -16 8 7 5 10 14 7 20
-5 7 1 11 15 11 17 0 19 -3 10 -14z m56 -58 c-2 -13 -4 -3 -4 22 0 25 2 35 4
23 2 -13 2 -33 0 -45z m853 52 c-13 -9 -13 -11 0 -21 12 -8 9 -9 -10 -3 -14 3
-27 8 -30 11 -7 6 22 23 40 23 13 0 13 -1 0 -10z m-363 -36 c-3 -3 -12 -4 -19
-1 -8 3 -5 6 6 6 11 1 17 -2 13 -5z m-537 -19 c0 -1 -11 -5 -25 -7 -16 -3 -25
-1 -25 7 0 8 9 10 25 7 14 -2 25 -6 25 -7z m903 8 c-7 -2 -21 -2 -30 0 -10 3
-4 5 12 5 17 0 24 -2 18 -5z m7 -32 c0 -17 -3 -18 -25 -8 l-24 12 22 7 c12 3
23 6 25 7 1 1 2 -8 2 -18z m-904 -28 c-10 -10 -46 -11 -40 -1 3 4 15 8 26 8
12 0 18 -3 14 -7z m882 -5 c7 -7 12 -21 11 -32 0 -12 -3 -15 -6 -8 -2 6 -9 10
-14 6 -5 -3 -9 1 -9 8 0 9 -3 9 -10 -2 -11 -17 -13 -1 -4 24 7 19 16 20 32 4z
m-894 -29 c-17 -7 -16 -8 6 -9 23 -1 23 -2 5 -10 -30 -13 -32 -12 -30 13 3 28
2 27 22 20 15 -6 15 -7 -3 -14z m96 -64 c0 -5 -5 -3 -10 5 -5 8 -10 20 -10 25
0 6 5 3 10 -5 5 -8 10 -19 10 -25z m516 -83 c-9 -17 -19 -33 -24 -35 -12 -8
-45 21 -37 33 6 9 10 9 16 -1 8 -11 14 -9 32 12 28 33 33 29 13 -9z m-76 -102
c0 -5 -5 -10 -11 -10 -5 0 -7 5 -4 10 3 6 8 10 11 10 2 0 4 -4 4 -10z m-230
-34 c0 -2 3 -11 6 -19 4 -12 0 -14 -15 -10 -27 7 -36 33 -11 33 11 0 20 -2 20
-4z m170 -19 c14 -2 -2 -5 -35 -5 -40 0 -53 2 -40 7 11 5 23 7 28 4 4 -2 7 2
7 9 0 9 2 10 8 2 4 -7 18 -14 32 -17z"/>
<path d="M665 1111 c-3 -5 -1 -12 4 -15 5 -3 11 1 15 9 6 16 -9 21 -19 6z"/>
<path d="M757 1074 c-8 -8 1 -24 14 -24 5 0 9 7 9 15 0 15 -12 20 -23 9z"/>
<path d="M493 1018 c-5 -7 -6 -31 -2 -53 l7 -40 -1 40 c0 22 2 46 7 53 10 16
1 16 -11 0z"/>
<path d="M410 392 c6 -12 8 -27 5 -32 -3 -5 -1 -11 5 -15 16 -10 12 29 -6 51
-14 18 -15 18 -4 -4z"/>
<path d="M185 980 c3 -5 12 -7 20 -3 21 7 19 13 -6 13 -11 0 -18 -4 -14 -10z"/>
<path d="M965 779 c-10 -15 3 -25 16 -12 7 7 7 13 1 17 -6 3 -14 1 -17 -5z"/>
<path d="M2075 983 c-70 -181 -155 -486 -155 -558 0 -34 5 -47 19 -55 53 -28
95 2 182 130 60 88 62 90 51 90 -6 0 -33 -31 -62 -70 -28 -38 -55 -69 -58 -67
-4 1 -20 -12 -37 -28 -25 -25 -30 -27 -33 -13 -5 28 36 180 99 364 33 94 59
180 59 192 0 26 -19 39 -31 21 -6 -10 -9 -11 -9 -1 0 18 -17 15 -25 -5z"/>
<path d="M1331 796 c-17 -52 -41 -144 -53 -204 -25 -125 -21 -160 23 -176 39
-13 75 0 126 47 l46 42 -7 -51 c-8 -61 5 -100 34 -109 28 -9 49 10 32 27 -26
26 -1 168 64 370 20 60 34 111 32 113 -2 1 -13 6 -25 9 -19 6 -24 0 -41 -46
-10 -29 -32 -99 -47 -155 -16 -56 -32 -100 -37 -97 -4 3 -8 -1 -8 -10 0 -18
-43 -69 -82 -97 -26 -19 -33 -20 -54 -8 -22 12 -24 17 -19 53 10 61 52 223 75
290 19 55 19 61 3 78 -9 10 -20 18 -24 18 -4 0 -22 -42 -38 -94z"/>
<path d="M1857 870 c-13 -11 -49 -51 -78 -89 -29 -39 -55 -68 -57 -66 -2 2 6
33 18 70 17 52 19 69 10 80 -19 23 -38 18 -54 -12 -39 -77 -132 -412 -122
-439 3 -8 15 -14 26 -14 16 0 27 14 46 55 27 62 28 69 14 60 -11 -7 0 26 26
78 40 77 162 242 172 232 3 -3 -3 -15 -14 -27 -10 -13 -2 -8 19 11 20 19 40
31 44 27 4 -4 -10 -58 -30 -120 -42 -127 -67 -233 -67 -286 0 -43 20 -84 43
-88 14 -3 16 2 11 26 -8 38 8 112 57 268 54 175 57 199 29 229 -28 30 -59 32
-93 5z"/>
<path d="M2477 863 c-11 -11 -8 -501 3 -508 7 -4 10 83 10 254 0 144 -1 261
-3 261 -2 0 -7 -3 -10 -7z"/>
<path d="M3735 828 c-23 -33 1 -36 33 -4 26 25 26 26 5 26 -12 0 -29 -10 -38
-22z"/>
<path d="M2897 833 c-4 -3 -7 -17 -7 -30 0 -19 -5 -23 -33 -23 -44 0 -67 -26
-67 -76 0 -47 17 -75 45 -75 11 1 39 1 63 1 l42 0 0 105 c0 95 -2 105 -18 105
-10 0 -22 -3 -25 -7z m-7 -128 c0 -38 -3 -45 -20 -45 -10 0 -24 9 -30 19 -14
28 4 71 30 71 17 0 20 -6 20 -45z"/>
<path d="M3610 820 c0 -15 7 -20 25 -20 18 0 25 5 25 20 0 15 -7 20 -25 20
-18 0 -25 -5 -25 -20z"/>
<path d="M2630 730 l0 -100 70 0 c63 0 70 2 70 20 0 17 -7 20 -45 20 -41 0
-45 2 -45 25 0 23 4 25 46 25 38 0 45 3 42 18 -2 12 -15 18 -46 20 -28 2 -42
8 -42 18 0 10 12 14 45 14 38 0 45 3 45 20 0 18 -7 20 -70 20 l-70 0 0 -100z"/>
<path d="M1386 754 c-4 -14 -5 -28 -3 -31 3 -2 8 8 11 23 4 14 5 28 3 31 -3 2
-8 -8 -11 -23z"/>
<path d="M2970 722 c0 -64 15 -93 45 -92 11 0 39 0 63 1 l42 0 0 75 c0 67 -2
74 -20 74 -18 0 -20 -7 -20 -54 0 -46 -3 -56 -20 -61 -32 -10 -40 3 -40 61 0
51 -1 54 -25 54 -24 0 -25 -3 -25 -58z"/>
<path d="M3161 754 c-39 -49 -23 -107 33 -122 53 -15 86 -5 86 26 0 20 -3 23
-12 14 -28 -28 -78 -7 -78 34 0 34 26 50 61 37 28 -11 30 -10 27 10 -3 18 -10
22 -49 25 -41 3 -50 -1 -68 -24z"/>
<path d="M3300 761 c0 -16 5 -18 39 -14 22 3 41 1 45 -5 6 -10 -2 -14 -56 -26
-39 -9 -49 -53 -18 -78 15 -12 30 -16 44 -12 12 4 36 6 54 5 l32 -2 0 65 c0
77 -10 86 -89 86 -43 0 -51 -3 -51 -19z m90 -81 c0 -15 -7 -20 -25 -20 -41 0
-30 37 13 39 6 1 12 -8 12 -19z"/>
<path d="M3472 757 c-41 -44 -24 -110 32 -125 53 -15 86 -5 86 26 0 20 -3 23
-12 14 -28 -28 -78 -7 -78 34 0 34 26 50 61 37 28 -11 30 -10 27 10 -2 18 -10
22 -48 25 -37 2 -50 -1 -68 -21z"/>
<path d="M3610 705 c0 -73 1 -75 25 -75 24 0 25 2 25 75 0 73 -1 75 -25 75
-24 0 -25 -2 -25 -75z"/>
<path d="M3690 760 c-26 -26 -26 -80 -1 -111 14 -18 29 -24 59 -24 54 0 82 26
82 77 0 51 -27 78 -80 78 -27 0 -47 -7 -60 -20z m85 -55 c0 -36 -2 -40 -25
-40 -20 0 -26 6 -28 28 -5 42 5 59 30 55 20 -3 23 -9 23 -43z"/>
<path d="M3850 704 c0 -72 1 -74 25 -74 24 0 25 3 25 54 0 53 10 68 38 59 7
-3 12 -24 12 -59 0 -51 1 -54 25 -54 24 0 25 3 25 56 0 84 -8 93 -85 93 l-65
-1 0 -74z"/>
<path d="M1356 646 c-9 -36 -16 -73 -15 -83 0 -10 9 18 20 61 11 43 18 81 15
83 -2 2 -11 -25 -20 -61z"/>
<path d="M3260 570 c0 -15 7 -20 25 -20 18 0 25 5 25 20 0 15 -7 20 -25 20
-18 0 -25 -5 -25 -20z"/>
<path d="M2665 568 c-33 -19 -44 -41 -45 -88 0 -55 19 -85 64 -100 51 -17 100
-1 104 33 l3 27 -30 -18 c-28 -15 -33 -16 -58 -2 -31 17 -42 64 -23 100 12 21
73 29 85 10 11 -18 25 -10 25 14 0 13 -7 27 -16 30 -25 10 -87 6 -109 -6z"/>
<path d="M3160 551 c0 -11 -6 -21 -12 -24 -10 -3 -10 -9 -1 -28 7 -13 14 -44
15 -69 3 -38 7 -45 28 -50 14 -4 33 -4 43 -2 23 6 22 32 -3 32 -14 0 -21 9
-26 34 -7 41 0 56 27 56 10 0 19 7 19 15 0 9 -9 15 -25 15 -18 0 -25 5 -25 20
0 13 -7 20 -20 20 -13 0 -20 -7 -20 -19z"/>
<path d="M1332 515 c0 -16 2 -22 5 -12 2 9 2 23 0 30 -3 6 -5 -1 -5 -18z"/>
<path d="M2820 510 c-26 -26 -26 -80 -1 -111 14 -18 29 -24 59 -24 54 0 82 26
82 77 0 51 -27 78 -80 78 -27 0 -47 -7 -60 -20z m85 -55 c0 -36 -2 -40 -25
-40 -20 0 -26 6 -28 28 -5 42 5 59 30 55 20 -3 23 -9 23 -43z"/>
<path d="M2980 453 c0 -66 2 -73 19 -73 17 0 20 8 23 53 3 48 5 52 31 55 27 3
27 2 27 -52 0 -53 1 -56 25 -56 24 0 25 3 25 56 0 84 -8 93 -85 92 l-65 -1 0
-74z"/>
<path d="M3260 455 c0 -73 1 -75 25 -75 24 0 25 2 25 75 0 73 -1 75 -25 75
-24 0 -25 -2 -25 -75z"/>
<path d="M3330 454 c0 -72 1 -74 25 -74 24 0 25 3 25 55 0 52 1 55 25 55 24 0
25 -3 25 -55 0 -52 1 -55 25 -55 24 0 25 2 25 64 0 39 -5 68 -12 74 -7 5 -41
10 -75 10 l-63 0 0 -74z"/>
<path d="M3510 468 c0 -73 8 -90 41 -89 13 0 43 0 67 1 l42 0 0 75 c0 73 -1
75 -25 75 -22 0 -24 -4 -27 -57 -3 -50 -6 -58 -23 -58 -17 0 -20 8 -23 58 -3
53 -5 57 -27 57 -24 0 -25 -3 -25 -62z"/>
<path d="M3690 511 c0 -16 5 -18 39 -14 45 6 66 -13 24 -22 -59 -13 -73 -23
-73 -54 0 -35 29 -56 63 -45 12 4 37 6 56 5 l33 -2 -4 60 c-6 78 -17 91 -84
91 -46 0 -54 -3 -54 -19z m90 -76 c0 -19 -24 -29 -47 -20 -17 6 -17 7 1 21 26
18 46 18 46 -1z"/>
<path d="M1420 299 c-245 -12 -257 -14 -276 -51 -8 -16 -13 -32 -11 -35 3 -2
50 3 106 11 176 28 427 46 731 52 162 3 301 9 308 13 37 20 -504 26 -858 10z"/>
<path d="M1883 253 c53 -2 141 -2 195 0 53 1 9 3 -98 3 -107 0 -151 -2 -97 -3z"/>
<path d="M414 69 c-3 -6 -2 -14 4 -18 5 -3 12 -17 15 -31 3 -16 5 -10 6 18 1
40 -10 54 -25 31z"/>
<path d="M477 73 c-10 -22 -5 -64 9 -70 23 -9 35 10 28 45 -6 29 -27 43 -37
25z m23 -13 c0 -5 -5 -10 -11 -10 -5 0 -7 5 -4 10 3 6 8 10 11 10 2 0 4 -4 4
-10z m4 -41 c-3 -5 -10 -7 -15 -3 -5 3 -7 10 -3 15 3 5 10 7 15 3 5 -3 7 -10
3 -15z"/>
<path d="M546 64 c-8 -22 -9 -21 15 -27 12 -3 18 -10 14 -17 -4 -6 -14 -9 -24
-5 -13 5 -14 4 -3 -6 10 -11 16 -10 30 5 16 16 16 18 -3 32 -17 13 -18 16 -5
24 13 8 13 10 -1 10 -9 0 -20 -7 -23 -16z"/>
<path d="M617 74 c-13 -13 -7 -44 8 -44 8 0 15 -5 15 -11 0 -6 -7 -8 -17 -4
-15 5 -16 4 -5 -6 17 -18 34 2 30 37 -3 27 -18 41 -31 28z m23 -19 c0 -8 -4
-15 -10 -15 -5 0 -10 7 -10 15 0 8 5 15 10 15 6 0 10 -7 10 -15z"/>
</g>
</svg>
